<svg width="28" height="28" viewBox="0 0 28 28" fill="none" xmlns="http://www.w3.org/2000/svg">
<path fill-rule="evenodd" clip-rule="evenodd" d="M13.4633 26.0762L13.545 26.1228L13.5777 26.1415C13.7072 26.2115 13.8522 26.2482 13.9994 26.2482C14.1467 26.2482 14.2916 26.2115 14.4212 26.1415L14.4538 26.124L14.5367 26.0762C14.6074 26.0349 14.7066 25.9754 14.8342 25.8977C15.0873 25.7425 15.4455 25.5127 15.8725 25.2105C16.9933 24.4187 18.0405 23.5277 19.0015 22.5482C21.2695 20.2265 23.625 16.7382 23.625 12.25C23.625 9.69729 22.6109 7.24913 20.8059 5.4441C19.0009 3.63906 16.5527 2.625 14 2.625C11.4473 2.625 8.99913 3.63906 7.1941 5.4441C5.38906 7.24913 4.375 9.69729 4.375 12.25C4.375 16.737 6.73167 20.2265 8.9985 22.5482C9.9595 23.5277 11.0067 24.4187 12.1275 25.2105C12.561 25.5168 13.0066 25.8056 13.4633 26.0762ZM14 15.75C14.9283 15.75 15.8185 15.3813 16.4749 14.7249C17.1313 14.0685 17.5 13.1783 17.5 12.25C17.5 11.3217 17.1313 10.4315 16.4749 9.77513C15.8185 9.11875 14.9283 8.75 14 8.75C13.0717 8.75 12.1815 9.11875 11.5251 9.77513C10.8687 10.4315 10.5 11.3217 10.5 12.25C10.5 13.1783 10.8687 14.0685 11.5251 14.7249C12.1815 15.3813 13.0717 15.75 14 15.75Z" fill="#757575"/>
</svg>
