<svg width="17" height="18" viewBox="0 0 17 18" fill="none" xmlns="http://www.w3.org/2000/svg">
<path d="M0.357178 9.00004C0.357178 4.50314 4.00314 0.857178 8.50004 0.857178C12.9969 0.857178 16.6429 4.50314 16.6429 9.00004C16.6429 13.4969 12.9969 17.1429 8.50004 17.1429C4.00314 17.1429 0.357178 13.4969 0.357178 9.00004ZM8.50004 1.87503C4.565 1.87503 1.37503 5.065 1.37503 9.00004C1.37503 12.9351 4.565 16.125 8.50004 16.125C12.4351 16.125 15.625 12.9351 15.625 9.00004C15.625 5.065 12.4351 1.87503 8.50004 1.87503ZM8.50004 7.30361C8.63501 7.30361 8.76446 7.35723 8.8599 7.45267C8.95534 7.54811 9.00896 7.67756 9.00896 7.81254V12.5625C9.00896 12.6975 8.95534 12.827 8.8599 12.9224C8.76446 13.0178 8.63501 13.0715 8.50004 13.0715C8.36506 13.0715 8.23561 13.0178 8.14017 12.9224C8.04473 12.827 7.99111 12.6975 7.99111 12.5625V7.81254C7.99111 7.67756 8.04473 7.54811 8.14017 7.45267C8.23561 7.35723 8.36506 7.30361 8.50004 7.30361ZM8.50004 6.28575C8.68 6.28575 8.8526 6.21426 8.97986 6.087C9.10711 5.95974 9.17861 5.78715 9.17861 5.60718C9.17861 5.42721 9.10711 5.25461 8.97986 5.12736C8.8526 5.0001 8.68 4.92861 8.50004 4.92861C8.32007 4.92861 8.14747 5.0001 8.02021 5.12736C7.89296 5.25461 7.82146 5.42721 7.82146 5.60718C7.82146 5.78715 7.89296 5.95974 8.02021 6.087C8.14747 6.21426 8.32007 6.28575 8.50004 6.28575Z" fill="#757575"/>
</svg>
