<svg width="1280" height="468" viewBox="0 0 1280 468" fill="none" xmlns="http://www.w3.org/2000/svg">
<g clip-path="url(#clip0_388_98)">
<rect width="1280" height="468" fill="#FFFAF6"/>
<path d="M192.248 263.153C235.401 278.354 263.155 317.678 265.706 360.654C272.657 361.672 279.611 363.37 286.486 365.792C343.918 386.023 374.075 448.981 353.845 506.412C333.614 563.844 270.655 594.001 213.223 573.77C170.071 558.569 142.318 519.245 139.767 476.269C132.816 475.251 125.861 473.554 118.985 471.132C117.338 470.551 115.714 469.934 114.112 469.285C85.9554 506.586 35.9119 523.167 -10.5211 506.811C-67.9523 486.579 -98.1093 423.622 -77.8784 366.191C-57.6474 308.759 5.31014 278.603 62.7416 298.833C64.3887 299.413 66.0133 300.03 67.615 300.679C95.7718 263.378 145.816 246.797 192.248 263.153Z" fill="#FF7700" fill-opacity="0.3"/>
<path d="M1210.96 170.683C1296.2 158.155 1375.45 217.096 1387.98 302.331C1400.5 387.566 1341.56 466.819 1256.33 479.347C1246.12 480.846 1236.01 481.318 1226.08 480.847C1210.89 539.834 1161.69 586.919 1097.65 596.332C1012.41 608.86 933.16 549.919 920.632 464.684C908.104 379.449 967.045 300.197 1052.28 287.669C1062.48 286.169 1072.6 285.696 1082.53 286.167C1097.72 227.18 1146.92 180.096 1210.96 170.683Z" fill="#FF7700" fill-opacity="0.3"/>
<path d="M636.4 54.48H637.84C640.28 54.48 641 56.36 641 57.96C641 59.6 640.24 61.44 637.84 61.44H636.4V78.04H628.4V44.44C628.4 41.84 630.28 40.48 632.4 40.48C634.52 40.48 636.4 41.84 636.4 44.44V54.48ZM608.52 41.8H618.04C623.2 41.8 624.16 43.36 624.16 48.4V76.52H608.52C603.36 76.52 602.4 74.96 602.4 69.92V48.4C602.4 43.36 603.36 41.8 608.52 41.8ZM611.44 70.24H616.44V49.4C616.44 48.6 616.24 48.08 615.36 48.08H611.16C610.28 48.08 610.12 48.6 610.12 49.4V68.88C610.12 69.76 610.4 70.24 611.44 70.24ZM677.6 44.44V59.84H669.6V44.44C669.6 41.84 671.48 40.48 673.6 40.48C675.72 40.48 677.6 41.84 677.6 44.44ZM655.44 53.32C652.8 57.56 648.32 59.84 644.96 59.84C642.72 59.84 641.24 58.68 641.24 56.4C641.24 54.84 642.2 53.68 643.88 53.24C647.4 52 649.36 49.8 649.6 45.16L649.68 43.92C649.84 41.88 651.52 40.64 653.76 40.68C655.96 40.72 657.64 42.12 657.64 44.2V45.36C657.64 46.04 657.6 46.72 657.52 47.36C663.36 47.76 667 51.8 666.72 59.28H658.92C659.16 55.88 657.84 53.8 655.44 53.32ZM653.04 73.24H676.4C678 73.24 678.68 74.52 678.68 75.72C678.68 76.84 678.04 78.04 676.4 78.04H649.32C645.68 78.04 643.72 75.68 643.72 72.88V71.92C643.72 69.2 645.68 67.36 649.32 67.36H669.52V66.4C669.52 65.92 669.4 65.72 668.88 65.72H646.36C644.8 65.72 644.16 64.6 644.16 63.4C644.16 62.28 644.84 61.04 646.36 61.04H672.88C676.4 61.04 677.64 62.08 677.64 65.16V71.64H653.04C652.48 71.64 652.2 71.96 652.2 72.36V72.56C652.2 72.92 652.48 73.24 653.04 73.24Z" fill="#FF7700"/>
<path d="M457.982 182.527V185.549H453.533V200.889H449.848V170.939H453.533V182.527H457.982ZM434.74 173.861V190.43C438.741 190.363 443.008 190.015 447.523 189.068L447.922 192.189C442.875 193.186 438.061 193.484 433.611 193.484H431.088V173.861H434.74ZM486.803 182.959V185.881H459.41V182.959H486.803ZM483.549 178.111V181.033H462.896V171.703H483.283V174.658H466.582V178.111H483.549ZM483.35 187.939V195.477H466.283V197.768H484.18V200.656H462.664V192.82H479.73V190.729H462.631V187.939H483.35ZM513.764 170.939V200.988H510.045V170.939H513.764ZM497.594 173.131C502.109 173.131 505.396 177.248 505.43 183.723C505.396 190.264 502.109 194.348 497.594 194.348C493.045 194.348 489.758 190.264 489.758 183.723C489.758 177.248 493.045 173.131 497.594 173.131ZM497.594 176.451C495.037 176.451 493.311 179.141 493.311 183.723C493.311 188.338 495.037 191.027 497.594 191.027C500.117 191.027 501.844 188.338 501.844 183.723C501.844 179.141 500.117 176.451 497.594 176.451ZM551.15 172.301V175.256H542.451C542.783 178.078 546.452 180.768 552.246 181.465L550.852 184.387C545.473 183.739 541.505 181.365 539.895 178.111C538.284 181.349 534.35 183.739 528.971 184.387L527.609 181.465C533.403 180.768 537.022 178.078 537.371 175.256H528.738V172.301H551.15ZM553.641 186.047V189.035H542.053V194.514H538.4V189.035H526.215V186.047H553.641ZM550.619 197.369V200.357H529.535V191.758H533.221V197.369H550.619ZM580.602 170.939V200.988H576.883V170.939H580.602ZM560.912 173.396V180.9H568.184V173.396H571.836V193.916H557.227V173.396H560.912ZM560.912 190.895H568.184V183.789H560.912V190.895ZM590.861 195.643L588.072 204.939H584.918L586.645 195.643H590.861ZM617.025 173.861V193.518H602.814V173.861H617.025ZM606.434 176.75V190.562H613.34V176.75H606.434ZM625.26 170.939V182.461H629.875V185.582H625.26V200.955H621.574V170.939H625.26ZM656.072 170.939V186.246H652.42V170.939H656.072ZM656.139 187.641V195.443H639.902V197.768H657.035V200.689H636.283V192.688H652.453V190.496H636.217V187.641H656.139ZM642.326 173.994C642.326 177.812 644.85 181.398 649.598 182.826L647.805 185.682C644.318 184.619 641.828 182.378 640.467 179.506C639.105 182.627 636.549 185.067 632.963 186.213L631.104 183.324C635.951 181.764 638.508 177.912 638.508 173.994V171.67H642.326V173.994ZM686.42 170.939V200.955H682.867V170.939H686.42ZM680.244 171.471V199.494H676.725V185.217H673.869C673.521 191.061 671.014 194.68 667.295 194.646C663.377 194.68 660.82 190.529 660.82 183.922C660.82 177.314 663.377 173.23 667.295 173.23C670.931 173.23 673.404 176.617 673.836 182.229H676.725V171.471H680.244ZM667.295 176.717C665.402 176.684 664.207 179.24 664.24 183.922C664.207 188.604 665.402 191.16 667.295 191.127C669.287 191.16 670.482 188.604 670.482 183.922C670.482 179.24 669.287 176.684 667.295 176.717ZM715.805 170.939V200.955H712.285V170.939H715.805ZM709.43 171.67V199.527H705.943V185.715H700.598C698.838 189.168 696.016 192.156 691.766 194.613L689.674 191.99C695.899 188.321 698.738 183.623 699.303 177.58H691.201V174.592H702.955C702.955 177.497 702.606 180.22 701.793 182.76H705.943V171.67H709.43ZM742.6 172.965V185.615H728.389V172.965H742.6ZM732.008 175.986V182.693H738.98V175.986H732.008ZM751.033 170.939V177.447H755.217V180.469H751.033V186.977H747.348V170.939H751.033ZM751.199 188.371V191.027H735.328V193.119H750.9V195.709H735.328V197.934H751.83V200.59H731.676V188.371H751.199ZM781.812 170.939V200.955H778.094V170.939H781.812ZM772.848 174.127C772.848 183.059 769.395 190.662 758.869 195.643L756.943 192.688C764.796 188.952 768.448 183.872 769.096 177.049H758.471V174.127H772.848ZM795.492 178.809C795.492 183.656 797.186 188.703 801.236 191.26L799.211 194.082C796.505 192.455 794.745 189.649 793.766 186.346C792.67 189.981 790.744 193.053 787.922 194.779L785.631 192.023C789.98 189.367 791.939 184.088 791.939 178.975V173.596H795.492V178.809ZM812.027 170.939V200.955H808.475V170.939H812.027ZM805.785 171.471V199.494H802.299V184.32H798.016V181.266H802.299V171.471H805.785ZM842.939 194.281V197.303H815.514V194.281H821.855V186.678C819.465 185.316 818.021 183.175 818.037 180.502C818.004 175.721 822.719 172.566 829.16 172.566C835.635 172.566 840.35 175.721 840.35 180.502C840.35 183.125 838.955 185.233 836.631 186.611V194.281H842.939ZM829.16 175.488C824.678 175.488 821.623 177.381 821.656 180.502C821.623 183.59 824.678 185.516 829.16 185.516C833.643 185.516 836.73 183.59 836.73 180.502C836.73 177.381 833.643 175.488 829.16 175.488ZM825.508 194.281H832.879V188.006C831.733 188.271 830.488 188.404 829.16 188.404C827.865 188.404 826.637 188.271 825.508 188.039V194.281ZM465.536 224.783C465.503 226.56 466.167 229.598 468.325 231.557C470.384 229.647 471.048 226.726 471.081 224.783V223.023H468.956V220.865H477.224V223.023H473.571V224.783C473.538 227.207 475.032 230.627 478.353 232.188L477.024 234.08C474.667 232.968 473.189 230.959 472.409 228.801C471.778 230.992 470.566 233.15 468.292 234.379C466.034 233.15 464.822 230.959 464.208 228.768C463.411 230.926 461.934 232.968 459.593 234.08L458.298 232.188C461.552 230.594 463.079 227.107 463.079 224.783V223.023H459.327V220.865H467.661V223.023H465.536V224.783ZM475.231 236.172V239.957H479.913V236.172H482.237V248.357H472.841V236.172H475.231ZM475.231 246.299H479.913V241.949H475.231V246.299ZM482.237 219.172V225.447H486.089V227.672H482.237V234.545H479.647V219.172H482.237ZM471.048 236.438V243.145H464.308V246.365C467.396 246.365 469.271 246.315 471.679 245.801L471.911 247.793C469.188 248.324 467.097 248.357 463.345 248.357H461.817V241.219H468.491V238.43H461.751V236.438H471.048ZM514.843 234.744V236.869H487.948V234.744H514.843ZM511.854 245.867V248.059H491.435V239.459H494.058V245.867H511.854ZM501.396 220.234C507.737 220.201 511.821 222.393 511.821 226.078C511.821 229.764 507.737 231.955 501.396 231.955C494.987 231.955 490.937 229.764 490.937 226.078C490.937 222.393 494.987 220.201 501.396 220.234ZM501.396 222.326C496.647 222.326 493.593 223.754 493.626 226.078C493.593 228.402 496.647 229.83 501.396 229.83C506.11 229.83 509.165 228.402 509.165 226.078C509.165 223.754 506.11 222.326 501.396 222.326ZM536.358 227.107C536.325 232.486 540.011 237.932 544.36 239.891L542.767 241.949C539.413 240.306 536.508 236.836 535.097 232.619C533.719 237.085 530.813 240.804 527.36 242.547L525.7 240.355C530.083 238.33 533.735 232.719 533.769 227.107V221.729H536.358V227.107ZM550.204 219.172V248.756H547.581V219.172H550.204ZM578.327 219.172V228.17H582.776V230.361H578.327V240.787H575.704V219.172H578.327ZM570.358 221.463C570.358 229.066 564.913 234.711 556.413 237.367L555.284 235.275C562.356 233.067 566.972 228.851 567.536 223.654H556.513V221.463H570.358ZM579.688 245.867V248.059H559.833V238.596H562.423V245.867H579.688ZM609.937 219.172V248.689H607.413V219.172H609.937ZM603.993 219.803V247.195H601.503V232.852H597.718C597.436 238.596 594.995 242.182 591.343 242.182C587.491 242.182 585.001 238.197 585.001 231.922C585.001 225.646 587.491 221.662 591.343 221.662C594.929 221.662 597.353 225.132 597.685 230.693H601.503V219.803H603.993ZM591.343 224.119C588.952 224.119 587.425 227.107 587.458 231.922C587.425 236.703 588.952 239.725 591.343 239.691C593.733 239.725 595.261 236.703 595.261 231.922C595.261 227.107 593.733 224.119 591.343 224.119ZM618.868 243.775L616.278 252.807H613.821L615.647 243.775H618.868ZM641.513 224.617C641.513 228.469 644.468 232.121 648.784 233.615L647.423 235.674C644.086 234.479 641.513 232.005 640.251 228.967C638.973 232.37 636.25 235.093 632.747 236.371L631.386 234.312C635.735 232.752 638.89 228.801 638.89 224.65V223.355H632.216V221.23H648.12V223.355H641.513V224.617ZM655.724 238.43V248.689H653.101V240.588H635.868V238.43H655.724ZM655.724 219.172V236.869H653.101V229.1H647.19V226.908H653.101V219.172H655.724ZM687.532 234.744V236.869H660.638V234.744H687.532ZM684.544 245.867V248.059H664.124V239.459H666.747V245.867H684.544ZM674.085 220.234C680.427 220.201 684.511 222.393 684.511 226.078C684.511 229.764 680.427 231.955 674.085 231.955C667.677 231.955 663.626 229.764 663.626 226.078C663.626 222.393 667.677 220.201 674.085 220.234ZM674.085 222.326C669.337 222.326 666.282 223.754 666.315 226.078C666.282 228.402 669.337 229.83 674.085 229.83C678.8 229.83 681.854 228.402 681.854 226.078C681.854 223.754 678.8 222.326 674.085 222.326ZM722.894 219.172V248.756H720.271V219.172H722.894ZM702.872 221.695V229.498H711.671V221.695H714.228V241.617H700.282V221.695H702.872ZM702.872 239.426H711.671V231.59H702.872V239.426ZM754.835 233.781V235.939H727.94V233.781H734.614V229.631C732.257 228.718 730.929 227.207 730.929 225.215C730.929 221.729 734.913 219.736 741.388 219.736C747.796 219.736 751.813 221.729 751.813 225.215C751.813 227.19 750.502 228.701 748.161 229.598V233.781H754.835ZM741.388 238.197C747.729 238.197 751.515 240.023 751.548 243.41C751.515 246.764 747.729 248.623 741.388 248.623C734.979 248.623 731.194 246.764 731.194 243.41C731.194 240.023 734.979 238.197 741.388 238.197ZM741.388 240.189C736.64 240.223 733.817 241.385 733.851 243.41C733.817 245.402 736.64 246.598 741.388 246.598C746.069 246.598 748.925 245.402 748.925 243.41C748.925 241.385 746.069 240.223 741.388 240.189ZM741.388 221.795C736.573 221.795 733.585 223.09 733.618 225.215C733.585 227.373 736.573 228.635 741.388 228.635C746.169 228.635 749.157 227.373 749.157 225.215C749.157 223.09 746.169 221.795 741.388 221.795ZM737.204 233.781H745.571V230.328C744.326 230.544 742.932 230.66 741.388 230.66C739.844 230.66 738.449 230.544 737.204 230.328V233.781ZM770.772 221.098C776.948 221.098 781.563 224.318 781.563 229.199C781.563 234.113 776.948 237.334 770.772 237.301C764.597 237.334 759.981 234.113 759.981 229.199C759.981 224.318 764.597 221.098 770.772 221.098ZM770.772 223.223C766.024 223.189 762.438 225.68 762.472 229.199C762.438 232.785 766.024 235.176 770.772 235.176C775.487 235.176 779.04 232.785 779.04 229.199C779.04 225.68 775.487 223.189 770.772 223.223ZM784.353 242.58V244.771H757.325V242.58H784.353ZM813.737 242.846V245.037H786.71V242.846H798.862V237.268H790.097V228.17H807.761V223.521H790.03V221.363H810.317V230.295H792.687V235.109H811.015V237.268H801.419V242.846H813.737ZM820.876 221.961L820.644 239.227H817.854L817.622 221.961H820.876ZM819.249 246.199C818.087 246.199 817.091 245.236 817.124 244.041C817.091 242.879 818.087 241.916 819.249 241.916C820.411 241.916 821.374 242.879 821.374 244.041C821.374 245.236 820.411 246.199 819.249 246.199Z" fill="#282828"/>
</g>
<defs>
<clipPath id="clip0_388_98">
<rect width="1280" height="468" fill="white"/>
</clipPath>
</defs>
</svg>
