<?xml version="1.0" encoding="UTF-8"?>
<svg id="_레이어_1" xmlns="http://www.w3.org/2000/svg" version="1.1" viewBox="0 0 3628.35 2834.65">
  <!-- Generator: Adobe Illustrator 29.7.1, SVG Export Plug-In . SVG Version: 2.1.1 Build 8)  -->
  <defs>
    <style>
      .st0, .st1 {
        fill: #f70;
      }

      .st2 {
        fill: #f6f6f6;
      }

      .st1 {
        opacity: .5;
      }

      .st1, .st3, .st4 {
        isolation: isolate;
      }

      .st5 {
        fill: #ffdbbb;
      }

      .st6 {
        opacity: .8;
      }

      .st7 {
        opacity: .7;
      }

      .st4 {
        font-family: AdobeMyungjoStd-Medium-KSCpc-EUC-H, 'Adobe Myungjo Std';
        font-size: 12px;
        font-weight: 500;
      }
    </style>
  </defs>
  <rect class="st2" x="-20.18" width="3651.51" height="2858.65"/>
  <circle class="st5" cx="1846.16" cy="3216.94" r="2151.96"/>
  <circle class="st1" cx="1846.16" cy="3498.79" r="2030.28"/>
  <g class="st6">
    <polygon class="st0" points="1812.72 989.47 1799.06 922.69 1863.7 944.25 1812.72 989.47"/>
    <path class="st0" d="M1774.66,733.22c5.75-25.11,31.04-47.06,56.71-49.23-7.79-9.8-16.05-19.25-24.61-28.36-25.67,2.18-50.97,24.12-56.71,49.23,8.59,9.11,16.79,18.59,24.61,28.37h0Z"/>
    <path class="st0" d="M2184.58,552.05c-25.27-.02-53.02,2.86-75.96-10.04-.28,12.63-.02,25.27.71,37.89,22.95,12.87,50.7,9.99,75.96,10.03-.73-12.61-1-25.25-.71-37.88h0Z"/>
    <path class="st0" d="M2133.63,847.84c-41.66-4.4-82.05-40.97-90.55-81.99-14.31,14.49-27.95,29.66-41.01,45.27,8.52,41.02,48.88,77.6,90.55,81.99,13.02-15.64,26.75-30.74,41.01-45.27Z"/>
    <path class="st0" d="M2184.58,552.05c-25.27-.02-53.02,2.86-75.96-10.04-.28,12.63-.02,25.27.71,37.89,22.95,12.87,50.7,9.99,75.96,10.03-.73-12.61-1-25.25-.71-37.88h0Z"/>
  </g>
  <g class="st6">
    <polygon class="st0" points="1947.76 1455.97 1934.1 1389.21 1998.75 1410.77 1947.76 1455.97"/>
    <path class="st0" d="M1909.71,1199.74c5.75-25.11,31.04-47.06,56.71-49.23-7.79-9.8-16.05-19.25-24.61-28.36-25.67,2.18-50.97,24.12-56.71,49.23,8.59,9.11,16.79,18.59,24.61,28.37h0Z"/>
    <path class="st0" d="M2319.62,1018.57c-25.27-.02-53.02,2.86-75.96-10.04-.28,12.63-.02,25.27.71,37.89,22.95,12.87,50.7,9.99,75.96,10.03-.73-12.61-1-25.25-.71-37.88Z"/>
    <path class="st0" d="M2268.68,1314.36c-41.66-4.4-82.05-40.97-90.55-81.99-14.31,14.49-27.95,29.66-41.01,45.27,8.52,41.02,48.88,77.6,90.55,81.99,13.02-15.64,26.75-30.74,41.01-45.27Z"/>
    <path class="st0" d="M2319.62,1018.57c-25.27-.02-53.02,2.86-75.96-10.04-.28,12.63-.02,25.27.71,37.89,22.95,12.87,50.7,9.99,75.96,10.03-.73-12.61-1-25.25-.71-37.88Z"/>
  </g>
  <g class="st6">
    <polygon class="st0" points="805.65 891.94 823.02 833.63 763.86 847.75 805.65 891.94"/>
    <path class="st0" d="M859.55,667.09c-3.15-22.77-23.91-44.27-46.57-48.21,7.7-8.1,15.77-15.86,24.11-23.29,22.64,3.95,43.43,25.43,46.57,48.21-8.35,7.42-16.39,15.21-24.11,23.29h0Z"/>
    <path class="st0" d="M509.3,473.93c22.47,1.96,46.91,6.7,68.32-2.98-.74,11.25-1.96,22.46-3.6,33.62-21.41,9.64-45.85,4.92-68.32,2.97,1.64-11.15,2.87-22.37,3.59-33.61h0Z"/>
    <path class="st0" d="M531.44,740.9c37.38-.65,76.16-30,86.92-65.8,11.58,14.01,22.53,28.55,32.92,43.46-10.78,35.81-49.53,65.17-86.92,65.8-10.35-14.93-21.37-29.42-32.92-43.46h0Z"/>
    <path class="st0" d="M509.3,473.93c22.47,1.96,46.91,6.7,68.32-2.98-.74,11.25-1.96,22.46-3.6,33.62-21.41,9.64-45.85,4.92-68.32,2.97,1.64-11.15,2.87-22.37,3.59-33.61h0Z"/>
  </g>
  <g class="st6">
    <polygon class="st0" points="2834.97 864.29 2821.96 800.71 2883.52 821.24 2834.97 864.29"/>
    <path class="st0" d="M2798.74,620.3c5.48-23.9,29.56-44.81,54-46.87-7.43-9.34-15.28-18.32-23.44-27.01-24.44,2.08-48.53,22.96-54,46.87,8.18,8.66,15.99,17.7,23.44,27.01h0Z"/>
    <path class="st0" d="M3189.05,447.78c-24.07-.02-50.49,2.73-72.33-9.55-.27,12.02-.02,24.06.67,36.08,21.86,12.26,48.27,9.51,72.33,9.54-.7-12.01-.95-24.05-.67-36.07Z"/>
    <path class="st0" d="M3140.54,729.43c-39.67-4.19-78.12-39.01-86.22-78.07-13.62,13.8-26.61,28.24-39.04,43.11,8.12,39.06,46.54,73.89,86.22,78.07,12.4-14.9,25.47-29.28,39.04-43.11Z"/>
    <path class="st0" d="M3189.05,447.78c-24.07-.02-50.49,2.73-72.33-9.55-.27,12.02-.02,24.06.67,36.08,21.86,12.26,48.27,9.51,72.33,9.54-.7-12.01-.95-24.05-.67-36.07Z"/>
  </g>
  <g class="st7">
    <polygon class="st0" points="612.17 1037.44 621.72 939.76 532.36 980.33 612.17 1037.44"/>
    <polygon class="st0" points="492.06 1756.81 505.13 1712.94 460.61 1723.56 492.06 1756.81"/>
    <polygon class="st0" points="612.17 1037.44 621.72 939.76 532.36 980.33 612.17 1037.44"/>
    <path class="st0" d="M773.45,1194.37c-13.06-31.47-51.95-36.59-80.82-38.16,2.23-14.3,5.08-28.48,8.44-42.52,28.87,1.56,67.75,6.69,80.82,38.16-3.43,14.04-6.17,28.25-8.44,42.52h0Z"/>
    <path class="st0" d="M650.44,1404.16c17.14-2.27,33.42-17.8,36.49-34.81,6.06,5.83,11.85,11.93,17.41,18.24-3.08,17.02-19.33,32.55-36.48,34.81-5.55-6.31-11.37-12.4-17.41-18.24h0Z"/>
    <path class="st0" d="M532.59,1587.65c-2.37-17.14-17.99-33.31-35.03-36.27,5.79-6.1,11.86-11.94,18.14-17.53,17.04,2.97,32.66,19.14,35.03,36.27-6.29,5.58-12.33,11.45-18.14,17.53Z"/>
    <path class="st0" d="M269.07,1442.31c16.9,1.49,35.3,5.04,51.4-2.23-.56,8.46-1.49,16.9-2.71,25.3-16.11,7.26-34.5,3.69-51.4,2.23,1.23-8.39,2.16-16.83,2.71-25.29h0Z"/>
    <path class="st0" d="M326.25,1077.99c1.66,15.85,1.66,33.44,11.24,46.98-7.89,1.02-15.84,1.67-23.8,2.04-9.58-13.55-9.57-31.13-11.25-46.99,7.95-.35,15.91-1.03,23.79-2.02h.02Z"/>
    <path class="st0" d="M286.57,939.25c-18.57,31.85-63.26,57.1-97.75,41.11-8.06-15.71-15.55-31.73-22.34-48.04,34.49,15.98,79.17-9.26,97.76-41.12,6.8,16.3,14.21,32.38,22.33,48.04h0Z"/>
    <path class="st0" d="M505.85,1281.36c-28.22,12.52-60.62,23.03-79.86,48.77-6.56-13.96-12.54-28.2-17.93-42.64,19.25-25.73,51.62-36.22,79.87-48.76,5.39,14.44,11.34,28.69,17.92,42.64h0Z"/>
    <path class="st0" d="M773.45,1194.37c-13.06-31.47-51.95-36.59-80.82-38.16,2.23-14.3,5.08-28.48,8.44-42.52,28.87,1.56,67.75,6.69,80.82,38.16-3.43,14.04-6.17,28.25-8.44,42.52h0Z"/>
    <path class="st0" d="M650.44,1404.16c17.14-2.27,33.42-17.8,36.49-34.81,6.06,5.83,11.85,11.93,17.41,18.24-3.08,17.02-19.33,32.55-36.48,34.81-5.55-6.31-11.37-12.4-17.41-18.24h0Z"/>
    <path class="st0" d="M285.74,1643.17c28.13-.48,57.29-22.57,65.4-49.52,8.72,10.54,16.96,21.48,24.77,32.7-8.11,26.94-37.27,49.03-65.4,49.52-7.79-11.24-16.09-22.14-24.76-32.71h0Z"/>
    <path class="st0" d="M269.07,1442.31c16.9,1.49,35.3,5.04,51.4-2.23-.56,8.46-1.49,16.9-2.71,25.3-16.11,7.26-34.5,3.69-51.4,2.23,1.23-8.39,2.16-16.83,2.71-25.29h0Z"/>
    <path class="st0" d="M326.25,1077.99c1.66,15.85,1.66,33.44,11.24,46.98-7.89,1.02-15.84,1.67-23.8,2.04-9.58-13.55-9.57-31.13-11.25-46.99,7.95-.35,15.91-1.03,23.79-2.02h.02Z"/>
    <path class="st0" d="M286.57,939.25c-18.57,31.85-63.26,57.1-97.75,41.11-8.06-15.71-15.55-31.73-22.34-48.04,34.49,15.98,79.17-9.26,97.76-41.12,6.8,16.3,14.21,32.38,22.33,48.04h0Z"/>
    <path class="st0" d="M505.85,1281.36c-28.22,12.52-60.62,23.03-79.86,48.77-6.56-13.96-12.54-28.2-17.93-42.64,19.25-25.73,51.62-36.22,79.87-48.76,5.39,14.44,11.34,28.69,17.92,42.64h0Z"/>
  </g>
  <g class="st7">
    <polygon class="st0" points="2963.28 1146.81 2985.85 1066.07 3044.49 1125.99 2963.28 1146.81"/>
    <polygon class="st0" points="2836.72 1756.88 2839.87 1717.91 2872.04 1740.12 2836.72 1756.88"/>
    <polygon class="st0" points="2963.28 1146.81 2985.85 1066.07 3044.49 1125.99 2963.28 1146.81"/>
    <path class="st0" d="M2786.35,1221.99c20.13-21.03,52.69-13.1,76.16-5.42,2.65-12.06,4.75-24.24,6.41-36.48-23.47-7.69-56.02-15.61-76.16,5.42-1.61,12.24-3.81,24.41-6.41,36.48Z"/>
    <path class="st0" d="M2819.51,1427.07c-12.95-7.09-21.12-24.49-18.31-38.99-6.63,2.77-13.13,5.85-19.51,9.15-2.81,14.5,5.35,31.9,18.31,38.99,6.37-3.32,12.89-6.36,19.51-9.15Z"/>
    <path class="st0" d="M2856.69,1609.63c7.18-12.92,24.62-20.97,39.11-18.06-2.73-6.65-5.77-13.17-9.03-19.55-14.49-2.9-31.93,5.16-39.11,18.06,3.28,6.39,6.29,12.93,9.03,19.55Z"/>
    <path class="st0" d="M3111.48,1575.28c-13.93-4.05-29.67-6.89-40.25-17.66-2.17,6.92-4.05,13.92-5.66,20.99,10.58,10.76,26.33,13.6,40.25,17.65,1.61-7.07,3.48-14.07,5.66-20.98h0Z"/>
    <path class="st0" d="M3178.48,1267.44c-6.22,12.11-11.65,26.12-23.46,33.94,5.96,3.24,12.11,6.22,18.32,8.97,11.81-7.83,17.24-21.83,23.47-33.95-6.23-2.74-12.36-5.74-18.33-8.96h0Z"/>
    <path class="st0" d="M3252.94,1169.19c4.96,31.11,32.75,65.02,65.15,62.95,11.27-10.03,22.19-20.48,32.63-31.37-32.41,2.07-60.2-31.84-65.16-62.96-10.46,10.88-21.32,21.39-32.62,31.38h0Z"/>
    <path class="st0" d="M2972.61,1373.94c18.6,18.69,41.16,37.07,48.54,63.5,9.53-9.1,18.7-18.58,27.45-28.42-7.38-26.43-29.93-44.8-48.55-63.5-8.75,9.84-17.9,19.34-27.45,28.43h.01Z"/>
    <path class="st0" d="M2819.51,1427.07c-12.95-7.09-21.12-24.49-18.31-38.99-6.63,2.77-13.13,5.85-19.51,9.15-2.81,14.5,5.35,31.9,18.31,38.99,6.37-3.32,12.89-6.36,19.51-9.15Z"/>
    <path class="st0" d="M3036.16,1730.11c-22.25-9.08-38.66-35.68-36.79-59.64-10.2,5.7-20.15,11.87-29.82,18.4-1.86,23.97,14.53,50.56,36.78,59.64,9.68-6.54,19.65-12.66,29.82-18.4h.01Z"/>
    <path class="st0" d="M3111.48,1575.28c-13.93-4.05-29.67-6.89-40.25-17.66-2.17,6.92-4.05,13.92-5.66,20.99,10.58,10.76,26.33,13.6,40.25,17.65,1.61-7.07,3.48-14.07,5.66-20.98h0Z"/>
    <path class="st0" d="M3178.48,1267.44c-6.22,12.11-11.65,26.12-23.46,33.94,5.96,3.24,12.11,6.22,18.32,8.97,11.81-7.83,17.24-21.83,23.47-33.95-6.23-2.74-12.36-5.74-18.33-8.96h0Z"/>
    <path class="st0" d="M3252.94,1169.19c4.96,31.11,32.75,65.02,65.15,62.95,11.27-10.03,22.19-20.48,32.63-31.37-32.41,2.07-60.2-31.84-65.16-62.96-10.46,10.88-21.32,21.39-32.62,31.38h0Z"/>
    <path class="st0" d="M2972.61,1373.94c18.6,18.69,41.16,37.07,48.54,63.5,9.53-9.1,18.7-18.58,27.45-28.42-7.38-26.43-29.93-44.8-48.55-63.5-8.75,9.84-17.9,19.34-27.45,28.43h.01Z"/>
  </g>
  <g class="st3">
    <g class="st3">
      <g class="st3">
        <text class="st4" transform="translate(2554.35 -392.68)"><tspan x="0" y="0">1440 813</tspan></text>
      </g>
    </g>
  </g>
</svg>