<?xml version="1.0" encoding="UTF-8"?>
<svg id="_레이어_1" xmlns="http://www.w3.org/2000/svg" version="1.1" viewBox="0 0 3628.35 2834.65">
  <!-- Generator: Adobe Illustrator 29.7.1, SVG Export Plug-In . SVG Version: 2.1.1 Build 8)  -->
  <defs>
    <style>
      .st0, .st1 {
        fill: #f70;
      }

      .st2 {
        fill: #f6f6f6;
      }

      .st1 {
        opacity: .5;
      }

      .st1, .st3, .st4 {
        isolation: isolate;
      }

      .st5 {
        fill: #ffdbbb;
      }

      .st6 {
        opacity: .8;
      }

      .st7 {
        opacity: .7;
      }

      .st4 {
        font-family: AdobeMyungjoStd-Medium-KSCpc-EUC-H, 'Adobe Myungjo Std';
        font-size: 12px;
        font-weight: 500;
      }
    </style>
  </defs>
  <rect class="st2" x="-15.13" y="-23.63" width="3651.51" height="2858.65"/>
  <circle class="st5" cx="1846.16" cy="3269.95" r="2442.31"/>
  <circle class="st1" cx="1846.16" cy="3752.33" r="2304.21"/>
  <g class="st6">
    <polygon class="st0" points="1813.4 791.54 1799.27 722.47 1866.14 744.77 1813.4 791.54"/>
    <path class="st0" d="M1774.04,526.49c5.95-25.97,32.11-48.68,58.66-50.92-8.06-10.14-16.6-19.91-25.46-29.33-26.55,2.26-52.72,24.95-58.66,50.92,8.89,9.42,17.37,19.23,25.46,29.34h0Z"/>
    <path class="st0" d="M2198.04,339.09c-26.14-.02-54.84,2.96-78.57-10.38-.29,13.06-.02,26.14.73,39.19,23.74,13.31,52.44,10.33,78.57,10.37-.76-13.04-1.03-26.12-.73-39.18Z"/>
    <path class="st0" d="M2145.34,645.05c-43.09-4.55-84.87-42.38-93.66-84.81-14.8,14.99-28.91,30.68-42.42,46.83,8.81,42.43,50.56,80.27,93.66,84.81,13.47-16.18,27.67-31.8,42.42-46.83Z"/>
    <path class="st0" d="M2198.04,339.09c-26.14-.02-54.84,2.96-78.57-10.38-.29,13.06-.02,26.14.73,39.19,23.74,13.31,52.44,10.33,78.57,10.37-.76-13.04-1.03-26.12-.73-39.18Z"/>
  </g>
  <g class="st6">
    <polygon class="st0" points="1953.09 1274.08 1938.96 1205.02 2005.83 1227.32 1953.09 1274.08"/>
    <path class="st0" d="M1913.73,1009.04c5.95-25.97,32.11-48.68,58.66-50.92-8.06-10.14-16.6-19.91-25.46-29.33-26.55,2.26-52.72,24.95-58.66,50.92,8.89,9.42,17.37,19.23,25.46,29.34h0Z"/>
    <path class="st0" d="M2337.73,821.64c-26.14-.02-54.84,2.96-78.57-10.38-.29,13.06-.02,26.14.73,39.19,23.74,13.31,52.44,10.33,78.57,10.37-.76-13.04-1.03-26.12-.73-39.18Z"/>
    <path class="st0" d="M2285.03,1127.6c-43.09-4.55-84.87-42.38-93.66-84.81-14.8,14.99-28.91,30.68-42.42,46.83,8.81,42.43,50.56,80.27,93.66,84.81,13.47-16.18,27.67-31.8,42.42-46.83Z"/>
    <path class="st0" d="M2337.73,821.64c-26.14-.02-54.84,2.96-78.57-10.38-.29,13.06-.02,26.14.73,39.19,23.74,13.31,52.44,10.33,78.57,10.37-.76-13.04-1.03-26.12-.73-39.18Z"/>
  </g>
  <g class="st6">
    <polygon class="st0" points="796.5 601.48 810.97 530.76 742.5 553.6 796.5 601.48"/>
    <path class="st0" d="M836.8,330.09c-6.09-26.59-32.88-49.84-60.06-52.14,8.26-10.38,16.99-20.39,26.07-30.04,27.18,2.31,53.98,25.54,60.06,52.14-9.1,9.64-17.79,19.69-26.07,30.04h0Z"/>
    <path class="st0" d="M402.67,138.21c26.77-.02,56.15,3.03,80.45-10.63.3,13.37.02,26.76-.75,40.12-24.31,13.63-53.69,10.58-80.45,10.62.78-13.35,1.06-26.74.75-40.11h0Z"/>
    <path class="st0" d="M456.63,451.49c44.12-4.66,86.9-43.39,95.9-86.84,15.15,15.35,29.6,31.41,43.43,47.95-9.02,43.45-51.77,82.19-95.9,86.84-13.79-16.57-28.33-32.56-43.43-47.95h0Z"/>
    <path class="st0" d="M402.67,138.21c26.77-.02,56.15,3.03,80.45-10.63.3,13.37.02,26.76-.75,40.12-24.31,13.63-53.69,10.58-80.45,10.62.78-13.35,1.06-26.74.75-40.11h0Z"/>
  </g>
  <g class="st6">
    <polygon class="st0" points="2984.1 669.7 2969.6 598.82 3038.23 621.7 2984.1 669.7"/>
    <path class="st0" d="M2943.71,397.68c6.11-26.65,32.96-49.96,60.2-52.26-8.28-10.41-17.03-20.43-26.13-30.11-27.25,2.32-54.1,25.6-60.2,52.26,9.12,9.66,17.83,19.73,26.13,30.11h0Z"/>
    <path class="st0" d="M3378.86,205.34c-26.83-.02-56.29,3.04-80.64-10.65-.3,13.4-.02,26.82.75,40.22,24.37,13.67,53.81,10.6,80.64,10.64-.78-13.39-1.06-26.81-.75-40.21Z"/>
    <path class="st0" d="M3324.78,519.35c-44.23-4.67-87.1-43.49-96.12-87.04-15.19,15.38-29.67,31.48-43.53,48.06,9.05,43.55,51.89,82.38,96.12,87.04,13.83-16.61,28.4-32.64,43.53-48.06Z"/>
    <path class="st0" d="M3378.86,205.34c-26.83-.02-56.29,3.04-80.64-10.65-.3,13.4-.02,26.82.75,40.22,24.37,13.67,53.81,10.6,80.64,10.64-.78-13.39-1.06-26.81-.75-40.21Z"/>
  </g>
  <g class="st7">
    <polygon class="st0" points="582.93 793.62 584.05 677.16 482.64 734.42 582.93 793.62"/>
    <polygon class="st0" points="515.82 1656.49 526.7 1603.28 475.18 1620.46 515.82 1656.49"/>
    <polygon class="st0" points="582.93 793.62 584.05 677.16 482.64 734.42 582.93 793.62"/>
    <path class="st0" d="M789.91,962.35c-18.72-35.84-65.22-37.85-99.51-36.69,1.14-17.13,3.04-34.19,5.55-51.15,34.29-1.17,80.78.85,99.51,36.69-2.59,16.95-4.36,34.04-5.55,51.14h0Z"/>
    <path class="st0" d="M666.34,1223.13c20.03-4.46,37.65-24.51,39.51-44.95,7.77,6.26,15.25,12.87,22.48,19.75-1.87,20.44-19.47,40.49-39.5,44.95-7.21-6.89-14.73-13.47-22.48-19.75h0Z"/>
    <path class="st0" d="M546.13,1452.3c-4.58-20.01-24.74-37.5-45.19-39.23,6.21-7.81,12.78-15.34,19.61-22.6,20.45,1.74,40.6,19.22,45.19,39.23-6.85,7.25-13.38,14.82-19.61,22.6Z"/>
    <path class="st0" d="M219.5,1307.93c20.14,0,42.25,2.28,60.53-7.99.22,10.06,0,20.13-.57,30.19-18.29,10.26-40.39,7.96-60.53,7.99.58-10.05.79-20.12.57-30.18Z"/>
    <path class="st0" d="M249.17,871.32c3.61,18.56,5.44,39.35,18.18,54.36-9.22,2.02-18.55,3.62-27.92,4.88-12.74-15.02-14.55-35.8-18.19-54.37,9.37-1.24,18.7-2.87,27.92-4.87h0Z"/>
    <path class="st0" d="M187.82,711.44c-18.64,39.59-68.84,74.08-111.28,58.78-11.16-17.74-21.69-35.89-31.4-54.47,42.44,15.3,92.63-19.19,111.29-58.79,9.74,18.56,20.17,36.79,31.39,54.47h0Z"/>
    <path class="st0" d="M482.64,1093.02c-32.05,17.74-69.26,33.53-89.32,65.95-9.21-15.82-17.76-32.04-25.64-48.54,20.07-32.42,57.26-48.19,89.34-65.95,7.88,16.51,16.4,32.73,25.62,48.54Z"/>
    <path class="st0" d="M789.91,962.35c-18.72-35.84-65.22-37.85-99.51-36.69,1.14-17.13,3.04-34.19,5.55-51.15,34.29-1.17,80.78.85,99.51,36.69-2.59,16.95-4.36,34.04-5.55,51.14h0Z"/>
    <path class="st0" d="M666.34,1223.13c20.03-4.46,37.65-24.51,39.51-44.95,7.77,6.26,15.25,12.87,22.48,19.75-1.87,20.44-19.47,40.49-39.5,44.95-7.21-6.89-14.73-13.47-22.48-19.75h0Z"/>
    <path class="st0" d="M260.1,1543.63c33.2-3.5,65.38-32.64,72.15-65.34,11.4,11.55,22.28,23.63,32.68,36.07-6.79,32.69-38.95,61.84-72.15,65.34-10.37-12.47-21.32-24.5-32.68-36.08h0Z"/>
    <path class="st0" d="M219.5,1307.93c20.14,0,42.25,2.28,60.53-7.99.22,10.06,0,20.13-.57,30.19-18.29,10.26-40.39,7.96-60.53,7.99.58-10.05.79-20.12.57-30.18Z"/>
    <path class="st0" d="M249.17,871.32c3.61,18.56,5.44,39.35,18.18,54.36-9.22,2.02-18.55,3.62-27.92,4.88-12.74-15.02-14.55-35.8-18.19-54.37,9.37-1.24,18.7-2.87,27.92-4.87h0Z"/>
    <path class="st0" d="M187.82,711.44c-18.64,39.59-68.84,74.08-111.28,58.78-11.16-17.74-21.69-35.89-31.4-54.47,42.44,15.3,92.63-19.19,111.29-58.79,9.74,18.56,20.17,36.79,31.39,54.47h0Z"/>
    <path class="st0" d="M482.64,1093.02c-32.05,17.74-69.26,33.53-89.32,65.95-9.21-15.82-17.76-32.04-25.64-48.54,20.07-32.42,57.26-48.19,89.34-65.95,7.88,16.51,16.4,32.73,25.62,48.54Z"/>
  </g>
  <g class="st7">
    <polygon class="st0" points="3108.51 1034.92 3133.67 944.9 3199.05 1011.71 3108.51 1034.92"/>
    <polygon class="st0" points="2967.41 1715.08 2970.92 1671.63 3006.79 1696.39 2967.41 1715.08"/>
    <polygon class="st0" points="3108.51 1034.92 3133.67 944.9 3199.05 1011.71 3108.51 1034.92"/>
    <path class="st0" d="M2911.25,1118.74c22.44-23.45,58.74-14.6,84.91-6.04,2.95-13.45,5.3-27.03,7.15-40.67-26.17-8.57-62.46-17.4-84.91,6.04-1.79,13.65-4.25,27.21-7.15,40.67Z"/>
    <path class="st0" d="M2948.22,1347.38c-14.44-7.91-23.55-27.3-20.41-43.47-7.39,3.09-14.64,6.52-21.75,10.2-3.13,16.17,5.96,35.56,20.41,43.47,7.1-3.7,14.37-7.09,21.75-10.2Z"/>
    <path class="st0" d="M2989.67,1550.91c8-14.4,27.45-23.38,43.6-20.14-3.04-7.41-6.43-14.68-10.07-21.8-16.15-3.23-35.6,5.75-43.6,20.14,3.66,7.12,7.01,14.41,10.07,21.8Z"/>
    <path class="st0" d="M3273.73,1512.61c-15.53-4.51-33.08-7.68-44.87-19.69-2.42,7.71-4.51,15.52-6.31,23.4,11.8,12,29.36,15.16,44.87,19.68,1.79-7.88,3.88-15.69,6.31-23.39Z"/>
    <path class="st0" d="M3348.43,1169.41c-6.94,13.5-12.99,29.12-26.16,37.84,6.65,3.61,13.5,6.94,20.43,10,13.17-8.73,19.22-24.34,26.17-37.85-6.95-3.05-13.78-6.4-20.44-9.99h0Z"/>
    <path class="st0" d="M3431.45,1059.87c5.53,34.68,36.51,72.49,72.64,70.18,12.57-11.18,24.74-22.83,36.38-34.97-36.13,2.31-67.12-35.5-72.65-70.19-11.66,12.13-23.77,23.85-36.37,34.98h0Z"/>
    <path class="st0" d="M3118.91,1288.14c20.74,20.84,45.89,41.33,54.12,70.8,10.63-10.14,20.85-20.72,30.6-31.69-8.23-29.47-33.37-49.95-54.13-70.8-9.76,10.97-19.96,21.56-30.6,31.7h0Z"/>
    <path class="st0" d="M2948.22,1347.38c-14.44-7.91-23.55-27.3-20.41-43.47-7.39,3.09-14.64,6.52-21.75,10.2-3.13,16.17,5.96,35.56,20.41,43.47,7.1-3.7,14.37-7.09,21.75-10.2Z"/>
    <path class="st0" d="M3189.76,1685.23c-24.81-10.12-43.1-39.78-41.02-66.49-11.37,6.35-22.46,13.23-33.25,20.51-2.07,26.72,16.2,56.37,41.01,66.49,10.79-7.29,21.91-14.12,33.25-20.51h0Z"/>
    <path class="st0" d="M3273.73,1512.61c-15.53-4.51-33.08-7.68-44.87-19.69-2.42,7.71-4.51,15.52-6.31,23.4,11.8,12,29.36,15.16,44.87,19.68,1.79-7.88,3.88-15.69,6.31-23.39Z"/>
    <path class="st0" d="M3348.43,1169.41c-6.94,13.5-12.99,29.12-26.16,37.84,6.65,3.61,13.5,6.94,20.43,10,13.17-8.73,19.22-24.34,26.17-37.85-6.95-3.05-13.78-6.4-20.44-9.99h0Z"/>
    <path class="st0" d="M3431.45,1059.87c5.53,34.68,36.51,72.49,72.64,70.18,12.57-11.18,24.74-22.83,36.38-34.97-36.13,2.31-67.12-35.5-72.65-70.19-11.66,12.13-23.77,23.85-36.37,34.98h0Z"/>
    <path class="st0" d="M3118.91,1288.14c20.74,20.84,45.89,41.33,54.12,70.8,10.63-10.14,20.85-20.72,30.6-31.69-8.23-29.47-33.37-49.95-54.13-70.8-9.76,10.97-19.96,21.56-30.6,31.7h0Z"/>
  </g>
  <g class="st3">
    <text class="st4" transform="translate(2554.35 -392.68)"><tspan x="0" y="0">1440 813</tspan></text>
  </g>
</svg>