<?xml version="1.0" encoding="UTF-8"?>
<svg id="_레이어_1" data-name="레이어_1" xmlns="http://www.w3.org/2000/svg" version="1.1" viewBox="0 0 1440 813">
  <!-- Generator: Adobe Illustrator 29.7.1, SVG Export Plug-In . SVG Version: 2.1.1 Build 8)  -->
  <defs>
    <style>
      .st0, .st1 {
        fill: #f70;
      }

      .st2 {
        fill: #f6f6f6;
      }

      .st1 {
        isolation: isolate;
        opacity: .5;
      }

      .st3 {
        fill: #ffdbbb;
      }

      .st4 {
        opacity: .8;
      }

      .st5 {
        opacity: .7;
      }
    </style>
  </defs>
  <rect class="st2" x="-19.58" y="-2.17" width="1494.1" height="1122.84"/>
  <circle class="st3" cx="720" cy="1158.27" r="959.3"/>
  <circle class="st1" cx="720" cy="1293.88" r="905.06"/>
  <g class="st4">
    <polygon class="st0" points="717.67 332.71 710.94 299.81 742.79 310.43 717.67 332.71"/>
    <path class="st0" d="M698.92,206.44c2.84-12.37,15.3-23.19,27.95-24.26-3.84-4.83-7.91-9.49-12.13-13.98-12.65,1.08-25.11,11.89-27.95,24.26,4.23,4.49,8.28,9.16,12.13,13.98h0Z"/>
    <path class="st0" d="M900.92,117.15c-12.46,0-26.13,1.41-37.43-4.95-.14,6.22,0,12.45.35,18.67,11.31,6.34,24.98,4.92,37.43,4.94-.36-6.21-.49-12.44-.35-18.67Z"/>
    <path class="st0" d="M875.81,262.92c-20.53-2.17-40.43-20.19-44.62-40.41-7.05,7.14-13.78,14.62-20.21,22.31,4.2,20.22,24.09,38.24,44.62,40.41,6.42-7.71,13.18-15.15,20.21-22.31Z"/>
    <path class="st0" d="M900.92,117.15c-12.46,0-26.13,1.41-37.43-4.95-.14,6.22,0,12.45.35,18.67,11.31,6.34,24.98,4.92,37.43,4.94-.36-6.21-.49-12.44-.35-18.67Z"/>
  </g>
  <g class="st4">
    <polygon class="st0" points="784.22 562.6 777.49 529.7 809.34 540.32 784.22 562.6"/>
    <path class="st0" d="M765.47,436.33c2.84-12.37,15.3-23.19,27.95-24.26-3.84-4.83-7.91-9.49-12.13-13.98-12.65,1.08-25.11,11.89-27.95,24.26,4.23,4.49,8.28,9.16,12.13,13.98h0Z"/>
    <path class="st0" d="M967.47,347.05c-12.46,0-26.13,1.41-37.43-4.95-.14,6.22,0,12.45.35,18.67,11.31,6.34,24.98,4.92,37.43,4.94-.36-6.21-.49-12.44-.35-18.67Z"/>
    <path class="st0" d="M942.36,492.82c-20.53-2.17-40.43-20.19-44.62-40.41-7.05,7.14-13.78,14.62-20.21,22.31,4.2,20.22,24.09,38.24,44.62,40.41,6.42-7.71,13.18-15.15,20.21-22.31Z"/>
    <path class="st0" d="M967.47,347.05c-12.46,0-26.13,1.41-37.43-4.95-.14,6.22,0,12.45.35,18.67,11.31,6.34,24.98,4.92,37.43,4.94-.36-6.21-.49-12.44-.35-18.67Z"/>
  </g>
  <g class="st4">
    <polygon class="st0" points="380.25 277.72 386.98 244.82 355.12 255.44 380.25 277.72"/>
    <path class="st0" d="M399,151.45c-2.84-12.37-15.3-23.19-27.95-24.26,3.84-4.83,7.91-9.49,12.13-13.98,12.65,1.08,25.11,11.89,27.95,24.26-4.23,4.49-8.28,9.16-12.13,13.98h0Z"/>
    <path class="st0" d="M197,62.17c12.46,0,26.13,1.41,37.43-4.95.14,6.22,0,12.45-.35,18.67-11.31,6.34-24.98,4.92-37.43,4.94.36-6.21.49-12.44.35-18.67h0Z"/>
    <path class="st0" d="M222.11,207.93c20.53-2.17,40.43-20.19,44.62-40.41,7.05,7.14,13.78,14.62,20.21,22.31-4.2,20.22-24.09,38.24-44.62,40.41-6.42-7.71-13.18-15.15-20.21-22.31h0Z"/>
    <path class="st0" d="M197,62.17c12.46,0,26.13,1.41,37.43-4.95.14,6.22,0,12.45-.35,18.67-11.31,6.34-24.98,4.92-37.43,4.94.36-6.21.49-12.44.35-18.67h0Z"/>
  </g>
  <g class="st4">
    <polygon class="st0" points="1140.73 260.84 1134.01 227.94 1165.86 238.57 1140.73 260.84"/>
    <path class="st0" d="M1121.99,134.57c2.84-12.37,15.3-23.19,27.95-24.26-3.84-4.83-7.91-9.49-12.13-13.98-12.65,1.08-25.11,11.89-27.95,24.26,4.23,4.49,8.28,9.16,12.13,13.98h0Z"/>
    <path class="st0" d="M1323.99,45.29c-12.46,0-26.13,1.41-37.43-4.95-.14,6.22,0,12.45.35,18.67,11.31,6.34,24.98,4.92,37.43,4.94-.36-6.21-.49-12.44-.35-18.67Z"/>
    <path class="st0" d="M1298.88,191.05c-20.53-2.17-40.43-20.19-44.62-40.41-7.05,7.14-13.78,14.62-20.21,22.31,4.2,20.22,24.09,38.24,44.62,40.41,6.42-7.71,13.18-15.15,20.21-22.31Z"/>
    <path class="st0" d="M1323.99,45.29c-12.46,0-26.13,1.41-37.43-4.95-.14,6.22,0,12.45.35,18.67,11.31,6.34,24.98,4.92,37.43,4.94-.36-6.21-.49-12.44-.35-18.67Z"/>
  </g>
  <g class="st5">
    <polygon class="st0" points="280.87 367.12 281.39 312.94 234.21 339.58 280.87 367.12"/>
    <polygon class="st0" points="249.65 768.61 254.71 743.86 230.74 751.85 249.65 768.61"/>
    <polygon class="st0" points="280.87 367.12 281.39 312.94 234.21 339.58 280.87 367.12"/>
    <path class="st0" d="M377.18,445.63c-8.71-16.68-30.35-17.61-46.3-17.07.53-7.97,1.41-15.91,2.58-23.8,15.95-.55,37.59.4,46.3,17.07-1.21,7.89-2.03,15.84-2.58,23.79h0Z"/>
    <path class="st0" d="M319.69,566.97c9.32-2.07,17.52-11.4,18.38-20.92,3.62,2.91,7.1,5.99,10.46,9.19-.87,9.51-9.06,18.84-18.38,20.92-3.35-3.21-6.85-6.27-10.46-9.19h0Z"/>
    <path class="st0" d="M263.75,673.61c-2.13-9.31-11.51-17.45-21.03-18.25,2.89-3.63,5.95-7.14,9.12-10.51,9.52.81,18.89,8.94,21.03,18.25-3.19,3.37-6.23,6.89-9.12,10.51Z"/>
    <path class="st0" d="M111.77,606.43c9.37,0,19.66,1.06,28.16-3.72.1,4.68,0,9.37-.26,14.05-8.51,4.77-18.79,3.7-28.16,3.72.27-4.67.37-9.36.26-14.04Z"/>
    <path class="st0" d="M125.58,403.28c1.68,8.64,2.53,18.31,8.46,25.29-4.29.94-8.63,1.69-12.99,2.27-5.93-6.99-6.77-16.66-8.46-25.3,4.36-.58,8.7-1.34,12.99-2.27h0Z"/>
    <path class="st0" d="M97.03,328.89c-8.67,18.42-32.03,34.47-51.78,27.35-5.19-8.25-10.09-16.7-14.61-25.34,19.75,7.12,43.1-8.93,51.78-27.35,4.53,8.64,9.38,17.12,14.6,25.35h0Z"/>
    <path class="st0" d="M234.21,506.43c-14.91,8.25-32.22,15.6-41.56,30.69-4.29-7.36-8.26-14.91-11.93-22.59,9.34-15.08,26.64-22.42,41.57-30.69,3.66,7.68,7.63,15.23,11.92,22.59Z"/>
    <path class="st0" d="M377.18,445.63c-8.71-16.68-30.35-17.61-46.3-17.07.53-7.97,1.41-15.91,2.58-23.8,15.95-.55,37.59.4,46.3,17.07-1.21,7.89-2.03,15.84-2.58,23.79h0Z"/>
    <path class="st0" d="M319.69,566.97c9.32-2.07,17.52-11.4,18.38-20.92,3.62,2.91,7.1,5.99,10.46,9.19-.87,9.51-9.06,18.84-18.38,20.92-3.35-3.21-6.85-6.27-10.46-9.19h0Z"/>
    <path class="st0" d="M130.66,716.1c15.45-1.63,30.42-15.19,33.57-30.4,5.31,5.37,10.37,10.99,15.2,16.78-3.16,15.21-18.12,28.77-33.57,30.4-4.83-5.8-9.92-11.4-15.2-16.79h0Z"/>
    <path class="st0" d="M111.77,606.43c9.37,0,19.66,1.06,28.16-3.72.1,4.68,0,9.37-.26,14.05-8.51,4.77-18.79,3.7-28.16,3.72.27-4.67.37-9.36.26-14.04Z"/>
    <path class="st0" d="M125.58,403.28c1.68,8.64,2.53,18.31,8.46,25.29-4.29.94-8.63,1.69-12.99,2.27-5.93-6.99-6.77-16.66-8.46-25.3,4.36-.58,8.7-1.34,12.99-2.27h0Z"/>
    <path class="st0" d="M97.03,328.89c-8.67,18.42-32.03,34.47-51.78,27.35-5.19-8.25-10.09-16.7-14.61-25.34,19.75,7.12,43.1-8.93,51.78-27.35,4.53,8.64,9.38,17.12,14.6,25.35h0Z"/>
    <path class="st0" d="M234.21,506.43c-14.91,8.25-32.22,15.6-41.56,30.69-4.29-7.36-8.26-14.91-11.93-22.59,9.34-15.08,26.64-22.42,41.57-30.69,3.66,7.68,7.63,15.23,11.92,22.59Z"/>
  </g>
  <g class="st5">
    <polygon class="st0" points="1198.49 430.39 1210.17 388.6 1240.52 419.61 1198.49 430.39"/>
    <polygon class="st0" points="1132.99 746.12 1134.61 725.95 1151.27 737.45 1132.99 746.12"/>
    <polygon class="st0" points="1198.49 430.39 1210.17 388.6 1240.52 419.61 1198.49 430.39"/>
    <path class="st0" d="M1106.92,469.3c10.42-10.88,27.27-6.78,39.42-2.8,1.37-6.25,2.46-12.55,3.32-18.88-12.15-3.98-29-8.08-39.42,2.8-.83,6.34-1.97,12.63-3.32,18.88Z"/>
    <path class="st0" d="M1124.08,575.43c-6.7-3.67-10.93-12.68-9.47-20.18-3.43,1.43-6.8,3.02-10.09,4.74-1.45,7.51,2.77,16.51,9.47,20.18,3.3-1.72,6.67-3.29,10.09-4.74Z"/>
    <path class="st0" d="M1143.32,669.91c3.72-6.69,12.74-10.85,20.24-9.35-1.41-3.44-2.99-6.81-4.67-10.12-7.5-1.5-16.52,2.67-20.24,9.35,1.7,3.31,3.25,6.69,4.67,10.12Z"/>
    <path class="st0" d="M1275.18,652.13c-7.21-2.09-15.35-3.57-20.83-9.14-1.12,3.58-2.09,7.2-2.93,10.86,5.48,5.57,13.63,7.04,20.83,9.14.83-3.66,1.8-7.28,2.93-10.86Z"/>
    <path class="st0" d="M1309.86,492.82c-3.22,6.26-6.03,13.52-12.14,17.57,3.09,1.68,6.26,3.22,9.48,4.64,6.12-4.05,8.92-11.3,12.15-17.57-3.22-1.42-6.39-2.97-9.49-4.64h0Z"/>
    <path class="st0" d="M1348.4,441.97c2.56,16.1,16.95,33.65,33.72,32.58,5.83-5.19,11.49-10.6,16.89-16.23-16.77,1.07-31.16-16.48-33.72-32.58-5.41,5.63-11.03,11.07-16.88,16.24h0Z"/>
    <path class="st0" d="M1203.32,547.93c9.63,9.67,21.3,19.18,25.12,32.87,4.93-4.71,9.68-9.62,14.21-14.71-3.82-13.68-15.49-23.19-25.13-32.87-4.53,5.09-9.27,10.01-14.2,14.71h0Z"/>
    <path class="st0" d="M1124.08,575.43c-6.7-3.67-10.93-12.68-9.47-20.18-3.43,1.43-6.8,3.02-10.09,4.74-1.45,7.51,2.77,16.51,9.47,20.18,3.3-1.72,6.67-3.29,10.09-4.74Z"/>
    <path class="st0" d="M1236.2,732.27c-11.52-4.7-20.01-18.46-19.04-30.87-5.28,2.95-10.42,6.14-15.44,9.52-.96,12.4,7.52,26.17,19.04,30.87,5.01-3.39,10.17-6.56,15.44-9.52h0Z"/>
    <path class="st0" d="M1275.18,652.13c-7.21-2.09-15.35-3.57-20.83-9.14-1.12,3.58-2.09,7.2-2.93,10.86,5.48,5.57,13.63,7.04,20.83,9.14.83-3.66,1.8-7.28,2.93-10.86Z"/>
    <path class="st0" d="M1309.86,492.82c-3.22,6.26-6.03,13.52-12.14,17.57,3.09,1.68,6.26,3.22,9.48,4.64,6.12-4.05,8.92-11.3,12.15-17.57-3.22-1.42-6.39-2.97-9.49-4.64h0Z"/>
    <path class="st0" d="M1348.4,441.97c2.56,16.1,16.95,33.65,33.72,32.58,5.83-5.19,11.49-10.6,16.89-16.23-16.77,1.07-31.16-16.48-33.72-32.58-5.41,5.63-11.03,11.07-16.88,16.24h0Z"/>
    <path class="st0" d="M1203.32,547.93c9.63,9.67,21.3,19.18,25.12,32.87,4.93-4.71,9.68-9.62,14.21-14.71-3.82-13.68-15.49-23.19-25.13-32.87-4.53,5.09-9.27,10.01-14.2,14.71h0Z"/>
  </g>
</svg>