<svg width="80" height="80" viewBox="0 0 80 80" fill="none" xmlns="http://www.w3.org/2000/svg">
<path d="M45.3 40.7C45.5 40.5 45.6 40.2667 45.6 40C45.6 39.7333 45.5 39.5 45.3 39.3L39.7 33.7C39.3667 33.3667 39 33.2833 38.6 33.45C38.2 33.6167 38 33.9333 38 34.4L38 45.6C38 46.0667 38.2 46.3833 38.6 46.55C39 46.7167 39.3667 46.6333 39.7 46.3L45.3 40.7ZM60 40C60 42.7667 59.4747 45.3667 58.424 47.8C57.3747 50.2333 55.95 52.35 54.15 54.15C52.35 55.95 50.2333 57.3747 47.8 58.424C45.3667 59.4747 42.7667 60 40 60C37.2333 60 34.6333 59.4747 32.2 58.424C29.7667 57.3747 27.65 55.95 25.85 54.15C24.05 52.35 22.6247 50.2333 21.574 47.8C20.5247 45.3667 20 42.7667 20 40C20 37.2333 20.5247 34.6333 21.574 32.2C22.6247 29.7667 24.05 27.65 25.85 25.85C27.65 24.05 29.7667 22.6253 32.2 21.576C34.6333 20.5253 37.2333 20 40 20C42.7667 20 45.3667 20.5253 47.8 21.576C50.2333 22.6253 52.35 24.05 54.15 25.85C55.95 27.65 57.3747 29.7667 58.424 32.2C59.4747 34.6333 60 37.2333 60 40ZM56 40C56 35.5667 54.442 31.7913 51.326 28.674C48.2087 25.558 44.4333 24 40 24C35.5667 24 31.7913 25.558 28.674 28.674C25.558 31.7913 24 35.5667 24 40C24 44.4333 25.558 48.208 28.674 51.324C31.7913 54.4413 35.5667 56 40 56C44.4333 56 48.2087 54.4413 51.326 51.324C54.442 48.208 56 44.4333 56 40Z" fill="#282828"/>
</svg>
