<svg width="80" height="80" viewBox="0 0 80 80" fill="none" xmlns="http://www.w3.org/2000/svg">
<path d="M34.7 39.3C34.5 39.5 34.4 39.7333 34.4 40C34.4 40.2667 34.5 40.5 34.7 40.7L40.3 46.3C40.6333 46.6333 41 46.7167 41.4 46.55C41.8 46.3833 42 46.0667 42 45.6L42 34.4C42 33.9333 41.8 33.6167 41.4 33.45C41 33.2833 40.6333 33.3667 40.3 33.7L34.7 39.3ZM20 40C20 37.2333 20.5253 34.6333 21.576 32.2C22.6253 29.7667 24.05 27.65 25.85 25.85C27.65 24.05 29.7667 22.6253 32.2 21.576C34.6333 20.5253 37.2333 20 40 20C42.7667 20 45.3667 20.5253 47.8 21.576C50.2333 22.6253 52.35 24.05 54.15 25.85C55.95 27.65 57.3753 29.7667 58.426 32.2C59.4753 34.6333 60 37.2333 60 40C60 42.7667 59.4753 45.3667 58.426 47.8C57.3753 50.2333 55.95 52.35 54.15 54.15C52.35 55.95 50.2333 57.3747 47.8 58.424C45.3667 59.4747 42.7667 60 40 60C37.2333 60 34.6333 59.4747 32.2 58.424C29.7667 57.3747 27.65 55.95 25.85 54.15C24.05 52.35 22.6253 50.2333 21.576 47.8C20.5253 45.3667 20 42.7667 20 40ZM24 40C24 44.4333 25.558 48.2087 28.674 51.326C31.7913 54.442 35.5667 56 40 56C44.4333 56 48.2087 54.442 51.326 51.326C54.442 48.2087 56 44.4333 56 40C56 35.5667 54.442 31.792 51.326 28.676C48.2087 25.5587 44.4333 24 40 24C35.5667 24 31.7913 25.5587 28.674 28.676C25.558 31.792 24 35.5667 24 40Z" fill="#282828"/>
</svg>
