<svg width="1280" height="320" viewBox="0 0 1280 320" fill="none" xmlns="http://www.w3.org/2000/svg">
<path d="M192.248 115.153C235.401 130.354 263.155 169.678 265.706 212.654C272.657 213.672 279.611 215.37 286.486 217.792C343.918 238.023 374.075 300.981 353.845 358.412C333.614 415.844 270.655 446.001 213.223 425.77C170.071 410.569 142.318 371.245 139.767 328.269C132.816 327.251 125.861 325.554 118.985 323.132C117.338 322.551 115.714 321.934 114.112 321.285C85.9554 358.586 35.9119 375.167 -10.5211 358.811C-67.9523 338.579 -98.1093 275.622 -77.8784 218.191C-57.6474 160.759 5.31014 130.603 62.7416 150.833C64.3887 151.413 66.0133 152.03 67.615 152.679C95.7718 115.378 145.816 98.797 192.248 115.153Z" fill="#FF7700" fill-opacity="0.3"/>
<path d="M1210.96 22.6833C1296.2 10.1555 1375.45 69.0962 1387.98 154.331C1400.5 239.566 1341.56 318.819 1256.33 331.347C1246.12 332.846 1236.01 333.318 1226.08 332.847C1210.89 391.834 1161.69 438.919 1097.65 448.332C1012.41 460.86 933.16 401.919 920.632 316.684C908.104 231.449 967.045 152.197 1052.28 139.669C1062.48 138.169 1072.6 137.696 1082.53 138.167C1097.72 79.1805 1146.92 32.0965 1210.96 22.6833Z" fill="#FF7700" fill-opacity="0.3"/>
<path d="M457.982 34.5273V37.5488H453.533V52.8887H449.848V22.9395H453.533V34.5273H457.982ZM434.74 25.8613V42.4297C438.741 42.3633 443.008 42.0146 447.523 41.0684L447.922 44.1895C442.875 45.1855 438.061 45.4844 433.611 45.4844H431.088V25.8613H434.74ZM486.803 34.959V37.8809H459.41V34.959H486.803ZM483.549 30.1113V33.0332H462.896V23.7031H483.283V26.6582H466.582V30.1113H483.549ZM483.35 39.9395V47.4766H466.283V49.7676H484.18V52.6562H462.664V44.8203H479.73V42.7285H462.631V39.9395H483.35ZM513.764 22.9395V52.9883H510.045V22.9395H513.764ZM497.594 25.1309C502.109 25.1309 505.396 29.248 505.43 35.7227C505.396 42.2637 502.109 46.3477 497.594 46.3477C493.045 46.3477 489.758 42.2637 489.758 35.7227C489.758 29.248 493.045 25.1309 497.594 25.1309ZM497.594 28.4512C495.037 28.4512 493.311 31.1406 493.311 35.7227C493.311 40.3379 495.037 43.0273 497.594 43.0273C500.117 43.0273 501.844 40.3379 501.844 35.7227C501.844 31.1406 500.117 28.4512 497.594 28.4512ZM551.15 24.3008V27.2559H542.451C542.783 30.0781 546.452 32.7676 552.246 33.4648L550.852 36.3867C545.473 35.7393 541.505 33.3652 539.895 30.1113C538.284 33.3486 534.35 35.7393 528.971 36.3867L527.609 33.4648C533.403 32.7676 537.022 30.0781 537.371 27.2559H528.738V24.3008H551.15ZM553.641 38.0469V41.0352H542.053V46.5137H538.4V41.0352H526.215V38.0469H553.641ZM550.619 49.3691V52.3574H529.535V43.7578H533.221V49.3691H550.619ZM580.602 22.9395V52.9883H576.883V22.9395H580.602ZM560.912 25.3965V32.9004H568.184V25.3965H571.836V45.916H557.227V25.3965H560.912ZM560.912 42.8945H568.184V35.7891H560.912V42.8945ZM590.861 47.6426L588.072 56.9395H584.918L586.645 47.6426H590.861ZM617.025 25.8613V45.5176H602.814V25.8613H617.025ZM606.434 28.75V42.5625H613.34V28.75H606.434ZM625.26 22.9395V34.4609H629.875V37.582H625.26V52.9551H621.574V22.9395H625.26ZM656.072 22.9395V38.2461H652.42V22.9395H656.072ZM656.139 39.6406V47.4434H639.902V49.7676H657.035V52.6895H636.283V44.6875H652.453V42.4961H636.217V39.6406H656.139ZM642.326 25.9941C642.326 29.8125 644.85 33.3984 649.598 34.8262L647.805 37.6816C644.318 36.6191 641.828 34.3779 640.467 31.5059C639.105 34.627 636.549 37.0674 632.963 38.2129L631.104 35.3242C635.951 33.7637 638.508 29.9121 638.508 25.9941V23.6699H642.326V25.9941ZM686.42 22.9395V52.9551H682.867V22.9395H686.42ZM680.244 23.4707V51.4941H676.725V37.2168H673.869C673.521 43.0605 671.014 46.6797 667.295 46.6465C663.377 46.6797 660.82 42.5293 660.82 35.9219C660.82 29.3145 663.377 25.2305 667.295 25.2305C670.931 25.2305 673.404 28.6172 673.836 34.2285H676.725V23.4707H680.244ZM667.295 28.7168C665.402 28.6836 664.207 31.2402 664.24 35.9219C664.207 40.6035 665.402 43.1602 667.295 43.127C669.287 43.1602 670.482 40.6035 670.482 35.9219C670.482 31.2402 669.287 28.6836 667.295 28.7168ZM715.805 22.9395V52.9551H712.285V22.9395H715.805ZM709.43 23.6699V51.5273H705.943V37.7148H700.598C698.838 41.168 696.016 44.1562 691.766 46.6133L689.674 43.9902C695.899 40.3213 698.738 35.623 699.303 29.5801H691.201V26.5918H702.955C702.955 29.4971 702.606 32.2197 701.793 34.7598H705.943V23.6699H709.43ZM742.6 24.9648V37.6152H728.389V24.9648H742.6ZM732.008 27.9863V34.6934H738.98V27.9863H732.008ZM751.033 22.9395V29.4473H755.217V32.4688H751.033V38.9766H747.348V22.9395H751.033ZM751.199 40.3711V43.0273H735.328V45.1191H750.9V47.709H735.328V49.9336H751.83V52.5898H731.676V40.3711H751.199ZM781.812 22.9395V52.9551H778.094V22.9395H781.812ZM772.848 26.127C772.848 35.0586 769.395 42.6621 758.869 47.6426L756.943 44.6875C764.796 40.9521 768.448 35.8721 769.096 29.0488H758.471V26.127H772.848ZM795.492 30.8086C795.492 35.6562 797.186 40.7031 801.236 43.2598L799.211 46.082C796.505 44.4551 794.745 41.6494 793.766 38.3457C792.67 41.9814 790.744 45.0527 787.922 46.7793L785.631 44.0234C789.98 41.3672 791.939 36.0879 791.939 30.9746V25.5957H795.492V30.8086ZM812.027 22.9395V52.9551H808.475V22.9395H812.027ZM805.785 23.4707V51.4941H802.299V36.3203H798.016V33.2656H802.299V23.4707H805.785ZM842.939 46.2812V49.3027H815.514V46.2812H821.855V38.6777C819.465 37.3164 818.021 35.1748 818.037 32.502C818.004 27.7207 822.719 24.5664 829.16 24.5664C835.635 24.5664 840.35 27.7207 840.35 32.502C840.35 35.125 838.955 37.2334 836.631 38.6113V46.2812H842.939ZM829.16 27.4883C824.678 27.4883 821.623 29.3809 821.656 32.502C821.623 35.5898 824.678 37.5156 829.16 37.5156C833.643 37.5156 836.73 35.5898 836.73 32.502C836.73 29.3809 833.643 27.4883 829.16 27.4883ZM825.508 46.2812H832.879V40.0059C831.733 40.2715 830.488 40.4043 829.16 40.4043C827.865 40.4043 826.637 40.2715 825.508 40.0391V46.2812ZM465.536 76.7832C465.503 78.5596 466.167 81.5977 468.325 83.5566C470.384 81.6475 471.048 78.7256 471.081 76.7832V75.0234H468.956V72.8652H477.224V75.0234H473.571V76.7832C473.538 79.207 475.032 82.627 478.353 84.1875L477.024 86.0801C474.667 84.9678 473.189 82.959 472.409 80.8008C471.778 82.9922 470.566 85.1504 468.292 86.3789C466.034 85.1504 464.822 82.959 464.208 80.7676C463.411 82.9258 461.934 84.9678 459.593 86.0801L458.298 84.1875C461.552 82.5938 463.079 79.1074 463.079 76.7832V75.0234H459.327V72.8652H467.661V75.0234H465.536V76.7832ZM475.231 88.1719V91.957H479.913V88.1719H482.237V100.357H472.841V88.1719H475.231ZM475.231 98.2988H479.913V93.9492H475.231V98.2988ZM482.237 71.1719V77.4473H486.089V79.6719H482.237V86.5449H479.647V71.1719H482.237ZM471.048 88.4375V95.1445H464.308V98.3652C467.396 98.3652 469.271 98.3154 471.679 97.8008L471.911 99.793C469.188 100.324 467.097 100.357 463.345 100.357H461.817V93.2188H468.491V90.4297H461.751V88.4375H471.048ZM514.843 86.7441V88.8691H487.948V86.7441H514.843ZM511.854 97.8672V100.059H491.435V91.459H494.058V97.8672H511.854ZM501.396 72.2344C507.737 72.2012 511.821 74.3926 511.821 78.0781C511.821 81.7637 507.737 83.9551 501.396 83.9551C494.987 83.9551 490.937 81.7637 490.937 78.0781C490.937 74.3926 494.987 72.2012 501.396 72.2344ZM501.396 74.3262C496.647 74.3262 493.593 75.7539 493.626 78.0781C493.593 80.4023 496.647 81.8301 501.396 81.8301C506.11 81.8301 509.165 80.4023 509.165 78.0781C509.165 75.7539 506.11 74.3262 501.396 74.3262ZM536.358 79.1074C536.325 84.4863 540.011 89.9316 544.36 91.8906L542.767 93.9492C539.413 92.3057 536.508 88.8359 535.097 84.6191C533.719 89.085 530.813 92.8037 527.36 94.5469L525.7 92.3555C530.083 90.3301 533.735 84.7188 533.769 79.1074V73.7285H536.358V79.1074ZM550.204 71.1719V100.756H547.581V71.1719H550.204ZM578.327 71.1719V80.1699H582.776V82.3613H578.327V92.7871H575.704V71.1719H578.327ZM570.358 73.4629C570.358 81.0664 564.913 86.7109 556.413 89.3672L555.284 87.2754C562.356 85.0674 566.972 80.8506 567.536 75.6543H556.513V73.4629H570.358ZM579.688 97.8672V100.059H559.833V90.5957H562.423V97.8672H579.688ZM609.937 71.1719V100.689H607.413V71.1719H609.937ZM603.993 71.8027V99.1953H601.503V84.8516H597.718C597.436 90.5957 594.995 94.1816 591.343 94.1816C587.491 94.1816 585.001 90.1973 585.001 83.9219C585.001 77.6465 587.491 73.6621 591.343 73.6621C594.929 73.6621 597.353 77.1318 597.685 82.6934H601.503V71.8027H603.993ZM591.343 76.1191C588.952 76.1191 587.425 79.1074 587.458 83.9219C587.425 88.7031 588.952 91.7246 591.343 91.6914C593.733 91.7246 595.261 88.7031 595.261 83.9219C595.261 79.1074 593.733 76.1191 591.343 76.1191ZM618.868 95.7754L616.278 104.807H613.821L615.647 95.7754H618.868ZM641.513 76.6172C641.513 80.4688 644.468 84.1211 648.784 85.6152L647.423 87.6738C644.086 86.4785 641.513 84.0049 640.251 80.9668C638.973 84.3701 636.25 87.0928 632.747 88.3711L631.386 86.3125C635.735 84.752 638.89 80.8008 638.89 76.6504V75.3555H632.216V73.2305H648.12V75.3555H641.513V76.6172ZM655.724 90.4297V100.689H653.101V92.5879H635.868V90.4297H655.724ZM655.724 71.1719V88.8691H653.101V81.0996H647.19V78.9082H653.101V71.1719H655.724ZM687.532 86.7441V88.8691H660.638V86.7441H687.532ZM684.544 97.8672V100.059H664.124V91.459H666.747V97.8672H684.544ZM674.085 72.2344C680.427 72.2012 684.511 74.3926 684.511 78.0781C684.511 81.7637 680.427 83.9551 674.085 83.9551C667.677 83.9551 663.626 81.7637 663.626 78.0781C663.626 74.3926 667.677 72.2012 674.085 72.2344ZM674.085 74.3262C669.337 74.3262 666.282 75.7539 666.315 78.0781C666.282 80.4023 669.337 81.8301 674.085 81.8301C678.8 81.8301 681.854 80.4023 681.854 78.0781C681.854 75.7539 678.8 74.3262 674.085 74.3262ZM722.894 71.1719V100.756H720.271V71.1719H722.894ZM702.872 73.6953V81.498H711.671V73.6953H714.228V93.6172H700.282V73.6953H702.872ZM702.872 91.4258H711.671V83.5898H702.872V91.4258ZM754.835 85.7812V87.9395H727.94V85.7812H734.614V81.6309C732.257 80.7178 730.929 79.207 730.929 77.2148C730.929 73.7285 734.913 71.7363 741.388 71.7363C747.796 71.7363 751.813 73.7285 751.813 77.2148C751.813 79.1904 750.502 80.7012 748.161 81.5977V85.7812H754.835ZM741.388 90.1973C747.729 90.1973 751.515 92.0234 751.548 95.4102C751.515 98.7637 747.729 100.623 741.388 100.623C734.979 100.623 731.194 98.7637 731.194 95.4102C731.194 92.0234 734.979 90.1973 741.388 90.1973ZM741.388 92.1895C736.64 92.2227 733.817 93.3848 733.851 95.4102C733.817 97.4023 736.64 98.5977 741.388 98.5977C746.069 98.5977 748.925 97.4023 748.925 95.4102C748.925 93.3848 746.069 92.2227 741.388 92.1895ZM741.388 73.7949C736.573 73.7949 733.585 75.0898 733.618 77.2148C733.585 79.373 736.573 80.6348 741.388 80.6348C746.169 80.6348 749.157 79.373 749.157 77.2148C749.157 75.0898 746.169 73.7949 741.388 73.7949ZM737.204 85.7812H745.571V82.3281C744.326 82.5439 742.932 82.6602 741.388 82.6602C739.844 82.6602 738.449 82.5439 737.204 82.3281V85.7812ZM770.772 73.0977C776.948 73.0977 781.563 76.3184 781.563 81.1992C781.563 86.1133 776.948 89.334 770.772 89.3008C764.597 89.334 759.981 86.1133 759.981 81.1992C759.981 76.3184 764.597 73.0977 770.772 73.0977ZM770.772 75.2227C766.024 75.1895 762.438 77.6797 762.472 81.1992C762.438 84.7852 766.024 87.1758 770.772 87.1758C775.487 87.1758 779.04 84.7852 779.04 81.1992C779.04 77.6797 775.487 75.1895 770.772 75.2227ZM784.353 94.5801V96.7715H757.325V94.5801H784.353ZM813.737 94.8457V97.0371H786.71V94.8457H798.862V89.2676H790.097V80.1699H807.761V75.5215H790.03V73.3633H810.317V82.2949H792.687V87.1094H811.015V89.2676H801.419V94.8457H813.737ZM820.876 73.9609L820.644 91.2266H817.854L817.622 73.9609H820.876ZM819.249 98.1992C818.087 98.1992 817.091 97.2363 817.124 96.041C817.091 94.8789 818.087 93.916 819.249 93.916C820.411 93.916 821.374 94.8789 821.374 96.041C821.374 97.2363 820.411 98.1992 819.249 98.1992Z" fill="#282828"/>
</svg>
